<svg xmlns="http://www.w3.org/2000/svg" viewBox="0 0 1650 800" width="100%" height="100%" style="background-color: #ffffff; font-family: sans-serif;">
  <defs>
    <marker id="arrow" viewBox="0 0 10 10" refX="9" refY="5" markerWidth="6" markerHeight="6" orient="auto-start-reverse">
      <path d="M 0 0 L 10 5 L 0 10 z" fill="#D1D5DB" />
    </marker>
    <filter id="shadow" x="-5%" y="-5%" width="110%" height="110%">
      <feDropShadow dx="0" dy="2" stdDeviation="3" flood-opacity="0.05" />
    </filter>

    <path id="icon-search" d="M15.5 14h-.79l-.28-.27C15.41 12.59 16 11.11 16 9.5 16 5.91 13.09 3 9.5 3S3 5.91 3 9.5 5.91 16 9.5 16c1.61 0 3.09-.59 4.23-1.57l.27.28v.79l5 4.99L20.49 19l-4.99-5zm-6 0C7.01 14 5 11.99 5 9.5S7.01 5 9.5 5 14 7.01 14 9.5 11.99 14 9.5 14z"/>
    <path id="icon-filter" d="M10 18h4v-2h-4v2zM3 6v2h18V6H3zm3 7h12v-2H6v2z"/>
    <path id="icon-blueprint" d="M14 2H6c-1.1 0-1.99.9-1.99 2L4 20c0 1.1.89 2 1.99 2H18c1.1 0 2-.9 2-2V8l-6-6zm2 16H8v-2h8v2zm0-4H8v-2h8v2zm-3-5V3.5L18.5 9H13z"/>
    <path id="icon-structure" d="M21 13.1c-.1 0-.3.1-.4.2l-1 1 2.1 2.1 1-1c.2-.2.2-.6 0-.8l-1.3-1.3c-.1-.1-.2-.2-.4-.2m-1.9 1.8-6.1 6.1-2.1 2.1V23h2.1l2.1-2.1 6.1-6.1-2.1-2.1m-9.6-2.3-2 2H3v-2h4.5zm2 2H11v-2h3.2l-1 1zm-6.5-5 2 2H3v-2h2zm2 2H7v-2h1.2l-1 1zM3 3h18v2H3V3zm2 18v-2h2v2H5zm12-2v2h2v-2h-2z"/>
    <path id="icon-server" d="M2 20h20v-4H2v4zm2-3h2v2H4v-2zM2 4v4h20V4H2zm4 3H4V5h2v2zm-4 7h20v-4H2v4zm2-3h2v2H4v-2z"/>
    <path id="icon-code" d="M9.4 16.6L4.8 12l4.6-4.6L8 6l-6 6 6 6 1.4-1.4zm5.2 0l4.6-4.6-4.6-4.6L16 6l6 6-6 6-1.4-1.4z"/>
    <path id="icon-test" d="M9 16.17L4.83 12l-1.42 1.41L9 19 21 7l-1.41-1.41z"/>
    <path id="icon-review" d="M20 2H4c-1.1 0-2 .9-2 2v18l4-4h14c1.1 0 2-.9 2-2V4c0-1.1-.9-2-2-2zm0 14H6l-2 2V4h16v12zM12 9c.55 0 1 .45 1 1s-.45 1-1 1-1-.45-1-1 .45-1 1-1zm0-4c.55 0 1 .45 1 1s-.45 1-1 1-1-.45-1-1 .45-1 1-1zm0 8c.55 0 1 .45 1 1s-.45 1-1 1-1-.45-1-1 .45-1 1-1z"/>
    <path id="icon-merge" d="M17 20.41L18.41 19 15 15.59 13.59 17 17 20.41zM7.5 8H11v5.59L5.59 19 7 20.41l6-6V8h3.5L12 3.5 7.5 8z"/>
    <path id="icon-pipeline" d="M22 13h-5.8l-3-4H1c-.55 0-1 .45-1 1v6c0 .55.45 1 1 1h12.2l3 4h5.8c.55 0 1-.45 1-1v-6c0-.55-.45-1-1-1zM3 15c-.55 0-1-.45-1-1s.45-1 1-1 1 .45 1 1-.45 1-1 1zm18 2c-.55 0-1-.45-1-1s.45-1 1-1 1 .45 1 1-.45 1-1 1zm-1-5.5L16.5 9l3.5-2.5v5z"/>
    <path id="icon-rocket" d="M12 2.5s4 1.7 4 5.8C16 12.4 12 14 12 14s-4-1.6-4-5.7c0-4.1 4-5.8 4-5.8zM12 16c2.21 0 4-1.79 4-4V8h-2v2c0 1.1-.9 2-2 2s-2-.9-2-2V8H8v4c0 2.21 1.79 4 4 4zm0 2c-1.1 0-2 .9-2 2 0 .55.45 1 1 1h2c.55 0 1-.45 1-1 0-1.1-.9-2-2-2z"/>
    <path id="icon-qa" d="M19 3h-4.18C14.4 1.84 13.3 1 12 1s-2.4.84-2.82 2H5c-1.1 0-2 .9-2 2v14c0 1.1.9 2 2 2h14c1.1 0 2-.9 2-2V5c0-1.1-.9-2-2-2zm-7-.25c.41 0 .75.34.75.75s-.34.75-.75.75-.75-.34-.75-.75.34-.75.75-.75zM10 17l-4-4 1.41-1.41L10 14.17 17.59 6.58 19 8l-9 9z"/>
    <path id="icon-bug" d="M19 8h-1.81a5.002 5.002 0 0 0-4.19-3V3h-2v2c-1.86 0-3.42 1.01-4.19 3H5v2h1.17a5.003 5.003 0 0 0 1.37 2.83l-1.42 1.42L7.54 15.67l1.63-1.63A4.93 4.93 0 0 0 12 15c.93 0 1.8-.25 2.55-.67l2.03 2.03-1.41 1.41L13.74 16.39A5.003 5.003 0 0 0 14.83 13H19v-2h-1.17a5.002 5.002 0 0 0-4.19-3H19V8zm-7 5c-1.66 0-3-1.34-3-3s1.34-3 3-3 3 1.34 3 3-1.34 3-3 3z"/>
    <path id="icon-deploy-prod" d="M12 2C6.48 2 2 6.48 2 12s4.48 10 10 10 10-4.48 10-10S17.52 2 12 2zm-1 17.93c-3.95-.49-7-3.85-7-7.93 0-.62.08-1.21.21-1.79L9 15v1c0 1.1.9 2 2 2v1.93zm6.9-2.54c-.26-.81-1-1.39-1.9-1.39h-1v-3c0-.55-.45-1-1-1H8v-2h2c.55 0 1-.45 1-1V7h2c1.1 0 2-.9 2-2v-.41c2.93 1.19 5 4.06 5 7.41 0 2.08-.8 3.97-2.1 5.39z"/>
    <path id="icon-monitor" d="M21 3H3c-1.1 0-2 .9-2 2v12c0 1.1.9 2 2 2h5v2h8v-2h5c1.1 0 2-.9 2-2V5c0-1.1-.9-2-2-2zm0 14H3V5h18v12zM9 10v5h2v-5H9zm4-3v8h2V7h-2zm4 6v2h2v-2h-2z"/>
    <path id="icon-docs" d="M14 2H6c-1.1 0-1.99.9-1.99 2L4 20c0 1.1.89 2 1.99 2H18c1.1 0 2-.9 2-2V8l-6-6zm2 16H8v-2h8v2zm0-4H8v-2h8v2zm-3-5V3.5L18.5 9H13z"/>
    <path id="icon-retro" d="M12 4V1L8 5l4 4V6c3.31 0 6 2.69 6 6 0 1.01-.25 1.97-.7 2.8l1.46 1.46C19.54 15.03 20 13.57 20 12c0-4.42-3.58-8-8-8zm0 14c-3.31 0-6-2.69-6-6 0-1.01.25-1.97.7-2.8L5.24 7.74C4.46 8.97 4 10.43 4 12c0 4.42 3.58 8 8 8v3l4-4-4-4v3z"/>
    <path id="icon-security" d="M12 1L3 5v6c0 5.55 3.84 10.74 9 12 5.16-1.26 9-6.45 9-12V5l-9-4zm0 10.99h7c-.53 4.12-3.28 7.79-7 8.94V12H5V6.3l7-3.11v8.8z"/>
    <path id="icon-onboarding" d="M12 12c2.21 0 4-1.79 4-4s-1.79-4-4-4-4 1.79-4 4 1.79 4 4 4zm0 2c-2.67 0-8 1.34-8 4v2h16v-2c0-2.66-5.33-4-8-4z"/>
    <path id="icon-estimate" d="M11.99 2C6.47 2 2 6.48 2 12s4.47 10 9.99 10C17.52 22 22 17.52 22 12S17.52 2 11.99 2zM12 20c-4.42 0-8-3.58-8-8s3.58-8 8-8 8 3.58 8 8-3.58 8-8 8zm.5-13H11v6l5.25 3.15.75-1.23-4.5-2.67z"/>
  </defs>

  <text x="50" y="60" font-size="28" font-weight="bold" fill="#1F2937">Vývoj software s podporou AI nástrojů</text>
  <text x="50" y="85" font-size="16" fill="#6B7280">20 kroků vývojového workflow s vyznačením AI asistence</text>

  <rect x="1100" y="50" width="16" height="16" rx="4" fill="#10B981" />
  <text x="1125" y="63" font-size="14" fill="#6B7280">Silný (≥70%)</text>
  
  <rect x="1250" y="50" width="16" height="16" rx="4" fill="#F59E0B" />
  <text x="1275" y="63" font-size="14" fill="#6B7280">Střední (50-69%)</text>
  
  <rect x="1420" y="50" width="16" height="16" rx="4" fill="#EF4444" />
  <text x="1445" y="63" font-size="14" fill="#6B7280">Slabý (&lt;50%)</text>

  <rect x="80" y="125" width="1520" height="150" rx="12" fill="#F3F4F6" opacity="0.5" />
  <rect x="80" y="275" width="1520" height="150" rx="12" fill="#FFFBEB" opacity="0.5" />
  <rect x="80" y="425" width="1520" height="150" rx="12" fill="#ECFDF5" opacity="0.5" />
  <rect x="80" y="575" width="1520" height="150" rx="12" fill="#F5F3FF" opacity="0.5" />

  <text x="100" y="205" font-size="14" font-weight="bold" fill="#4B5563" text-anchor="end">PLÁNOVÁNÍ</text>
  <text x="100" y="355" font-size="14" font-weight="bold" fill="#4B5563" text-anchor="end">VÝVOJ</text>
  <text x="100" y="505" font-size="14" font-weight="bold" fill="#4B5563" text-anchor="end">NASAZENÍ</text>
  <text x="100" y="655" font-size="14" font-weight="bold" fill="#4B5563" text-anchor="end">ÚDRŽBA</text>

  <g stroke="#D1D5DB" stroke-width="2" fill="none" marker-end="url(#arrow)">
    <path d="M 390 200 L 415 200" />
    <path d="M 680 200 L 705 200" />
    <path d="M 970 200 L 995 200" />
    <path d="M 1260 200 L 1285 200" />
    <path d="M 390 350 L 415 350" />
    <path d="M 680 350 L 705 350" />
    <path d="M 970 350 L 995 350" />
    <path d="M 1260 350 L 1285 350" />
    <path d="M 390 500 L 415 500" />
    <path d="M 680 500 L 705 500" />
    <path d="M 970 500 L 995 500" />
    <path d="M 1260 500 L 1285 500" />
    <path d="M 390 650 L 415 650" />
    <path d="M 680 650 L 705 650" />
    <path d="M 970 650 L 995 650" />
    <path d="M 1260 650 L 1285 650" />
  </g>

  <g stroke="#D1D5DB" stroke-width="2" fill="none" marker-end="url(#arrow)">
    <path d="M 1420 200 L 1440 200 A 20 20 0 0 1 1460 220 L 1460 330 A 20 20 0 0 1 1440 350 L 280 350 A 20 20 0 0 0 260 370" />
    <path d="M 1420 350 L 1440 350 A 20 20 0 0 1 1460 370 L 1460 480 A 20 20 0 0 1 1440 500 L 280 500 A 20 20 0 0 0 260 520" />
    <path d="M 1420 500 L 1440 500 A 20 20 0 0 1 1460 520 L 1460 630 A 20 20 0 0 1 1440 650 L 280 650 A 20 20 0 0 0 260 670" />
  </g>


  <g transform="translate(130, 145)">
    <rect width="260" height="110" rx="8" fill="#ffffff" stroke="#10B981" stroke-width="2" filter="url(#shadow)" />
    <circle cx="25" cy="25" r="12" fill="#10B981" />
    <use href="#icon-search" x="15.5" y="15.5" transform="scale(0.8)" fill="#ffffff" />
    <text x="45" y="25" fill="#1F2937" font-size="14" font-weight="bold">Sběr požadavků</text>
    <text x="45" y="42" fill="#6B7280" font-size="10">Mattermost MCP, Jira MCP</text>
    <rect x="20" y="70" width="220" height="8" rx="4" fill="#E5E7EB" />
    <rect x="20" y="70" width="165" height="8" rx="4" fill="#10B981" />
    <text x="20" y="95" fill="#6B7280" font-size="10">Silná AI asistence</text>
    <text x="240" y="95" text-anchor="end" fill="#10B981" font-size="12" font-weight="bold">75%</text>
  </g>

  <g transform="translate(420, 145)">
    <rect width="260" height="110" rx="8" fill="#ffffff" stroke="#10B981" stroke-width="2" filter="url(#shadow)" />
    <circle cx="25" cy="25" r="12" fill="#10B981" />
    <use href="#icon-filter" x="15.5" y="15.5" transform="scale(0.8)" fill="#ffffff" />
    <text x="45" y="25" fill="#1F2937" font-size="14" font-weight="bold">Triáž a prioritizace</text>
    <text x="45" y="42" fill="#6B7280" font-size="10">Claude + Jira MCP</text>
    <rect x="20" y="70" width="220" height="8" rx="4" fill="#E5E7EB" />
    <rect x="20" y="70" width="154" height="8" rx="4" fill="#10B981" />
    <text x="20" y="95" fill="#6B7280" font-size="10">Silná AI asistence</text>
    <text x="240" y="95" text-anchor="end" fill="#10B981" font-size="12" font-weight="bold">70%</text>
  </g>

  <g transform="translate(710, 145)">
    <rect width="260" height="110" rx="8" fill="#ffffff" stroke="#F59E0B" stroke-width="2" filter="url(#shadow)" />
    <circle cx="25" cy="25" r="12" fill="#F59E0B" />
    <use href="#icon-blueprint" x="15.5" y="15.5" transform="scale(0.8)" fill="#ffffff" />
    <text x="45" y="25" fill="#1F2937" font-size="14" font-weight="bold">Analýza a specifikace</text>
    <text x="45" y="42" fill="#6B7280" font-size="10">Claude Code, GitHub MCP</text>
    <rect x="20" y="70" width="220" height="8" rx="4" fill="#E5E7EB" />
    <rect x="20" y="70" width="143" height="8" rx="4" fill="#F59E0B" />
    <text x="20" y="95" fill="#6B7280" font-size="10">Střední AI asistence</text>
    <text x="240" y="95" text-anchor="end" fill="#F59E0B" font-size="12" font-weight="bold">65%</text>
  </g>

  <g transform="translate(1000, 145)">
    <rect width="260" height="110" rx="8" fill="#ffffff" stroke="#F59E0B" stroke-width="2" filter="url(#shadow)" />
    <circle cx="25" cy="25" r="12" fill="#F59E0B" />
    <use href="#icon-structure" x="15.5" y="15.5" transform="scale(0.8)" fill="#ffffff" />
    <text x="45" y="25" fill="#1F2937" font-size="14" font-weight="bold">Architektura</text>
    <text x="45" y="42" fill="#6B7280" font-size="10">Claude Code /plan</text>
    <rect x="20" y="70" width="220" height="8" rx="4" fill="#E5E7EB" />
    <rect x="20" y="70" width="132" height="8" rx="4" fill="#F59E0B" />
    <text x="20" y="95" fill="#6B7280" font-size="10">Střední AI asistence</text>
    <text x="240" y="95" text-anchor="end" fill="#F59E0B" font-size="12" font-weight="bold">60%</text>
  </g>

  <g transform="translate(1290, 145)">
    <rect width="260" height="110" rx="8" fill="#ffffff" stroke="#10B981" stroke-width="2" filter="url(#shadow)" />
    <circle cx="25" cy="25" r="12" fill="#10B981" />
    <use href="#icon-server" x="15.5" y="15.5" transform="scale(0.8)" fill="#ffffff" />
    <text x="45" y="25" fill="#1F2937" font-size="14" font-weight="bold">Setup prostředí</text>
    <text x="45" y="42" fill="#6B7280" font-size="10">Claude Code, GH Actions</text>
    <rect x="20" y="70" width="220" height="8" rx="4" fill="#E5E7EB" />
    <rect x="20" y="70" width="209" height="8" rx="4" fill="#10B981" />
    <text x="20" y="95" fill="#6B7280" font-size="10">Silná AI asistence</text>
    <text x="240" y="95" text-anchor="end" fill="#10B981" font-size="12" font-weight="bold">95%</text>
  </g>

  <g transform="translate(130, 295)">
    <rect width="260" height="110" rx="8" fill="#ffffff" stroke="#10B981" stroke-width="2" filter="url(#shadow)" />
    <circle cx="25" cy="25" r="12" fill="#10B981" />
    <use href="#icon-code" x="15.5" y="15.5" transform="scale(0.8)" fill="#ffffff" />
    <text x="45" y="25" fill="#1F2937" font-size="14" font-weight="bold">Implementace</text>
    <text x="45" y="42" fill="#6B7280" font-size="10">Claude Code + AGENTS.md</text>
    <rect x="20" y="70" width="220" height="8" rx="4" fill="#E5E7EB" />
    <rect x="20" y="70" width="154" height="8" rx="4" fill="#10B981" />
    <text x="20" y="95" fill="#6B7280" font-size="10">Silná AI asistence</text>
    <text x="240" y="95" text-anchor="end" fill="#10B981" font-size="12" font-weight="bold">70%</text>
  </g>

  <g transform="translate(420, 295)">
    <rect width="260" height="110" rx="8" fill="#ffffff" stroke="#F59E0B" stroke-width="2" filter="url(#shadow)" />
    <circle cx="25" cy="25" r="12" fill="#F59E0B" />
    <use href="#icon-test" x="15.5" y="15.5" transform="scale(0.8)" fill="#ffffff" />
    <text x="45" y="25" fill="#1F2937" font-size="14" font-weight="bold">Unit / integr. testy</text>
    <text x="45" y="42" fill="#6B7280" font-size="10">Claude Code, GH Actions</text>
    <rect x="20" y="70" width="220" height="8" rx="4" fill="#E5E7EB" />
    <rect x="20" y="70" width="132" height="8" rx="4" fill="#F59E0B" />
    <text x="20" y="95" fill="#6B7280" font-size="10">Střední AI asistence</text>
    <text x="240" y="95" text-anchor="end" fill="#F59E0B" font-size="12" font-weight="bold">60%</text>
  </g>

  <g transform="translate(710, 295)">
    <rect width="260" height="110" rx="8" fill="#ffffff" stroke="#F59E0B" stroke-width="2" filter="url(#shadow)" />
    <circle cx="25" cy="25" r="12" fill="#F59E0B" />
    <use href="#icon-review" x="15.5" y="15.5" transform="scale(0.8)" fill="#ffffff" />
    <text x="45" y="25" fill="#1F2937" font-size="14" font-weight="bold">Code review</text>
    <text x="45" y="42" fill="#6B7280" font-size="10">Claude Code, CodeRabbit</text>
    <rect x="20" y="70" width="220" height="8" rx="4" fill="#E5E7EB" />
    <rect x="20" y="70" width="121" height="8" rx="4" fill="#F59E0B" />
    <text x="20" y="95" fill="#6B7280" font-size="10">Střední AI asistence</text>
    <text x="240" y="95" text-anchor="end" fill="#F59E0B" font-size="12" font-weight="bold">55%</text>
  </g>

  <g transform="translate(1000, 295)">
    <rect width="260" height="110" rx="8" fill="#ffffff" stroke="#10B981" stroke-width="2" filter="url(#shadow)" />
    <circle cx="25" cy="25" r="12" fill="#10B981" />
    <use href="#icon-merge" x="15.5" y="15.5" transform="scale(0.8)" fill="#ffffff" />
    <text x="45" y="25" fill="#1F2937" font-size="14" font-weight="bold">Merge a konflikty</text>
    <text x="45" y="42" fill="#6B7280" font-size="10">Claude Code, GitHub</text>
    <rect x="20" y="70" width="220" height="8" rx="4" fill="#E5E7EB" />
    <rect x="20" y="70" width="154" height="8" rx="4" fill="#10B981" />
    <text x="20" y="95" fill="#6B7280" font-size="10">Silná AI asistence</text>
    <text x="240" y="95" text-anchor="end" fill="#10B981" font-size="12" font-weight="bold">70%</text>
  </g>

  <g transform="translate(1290, 295)">
    <rect width="260" height="110" rx="8" fill="#ffffff" stroke="#10B981" stroke-width="2" filter="url(#shadow)" />
    <circle cx="25" cy="25" r="12" fill="#10B981" />
    <use href="#icon-pipeline" x="15.5" y="15.5" transform="scale(0.8)" fill="#ffffff" />
    <text x="45" y="25" fill="#1F2937" font-size="14" font-weight="bold">CI pipeline</text>
    <text x="45" y="42" fill="#6B7280" font-size="10">GH Actions, Dependabot</text>
    <rect x="20" y="70" width="220" height="8" rx="4" fill="#E5E7EB" />
    <rect x="20" y="70" width="165" height="8" rx="4" fill="#10B981" />
    <text x="20" y="95" fill="#6B7280" font-size="10">Silná AI asistence</text>
    <text x="240" y="95" text-anchor="end" fill="#10B981" font-size="12" font-weight="bold">75%</text>
  </g>

  <g transform="translate(130, 445)">
    <rect width="260" height="110" rx="8" fill="#ffffff" stroke="#10B981" stroke-width="2" filter="url(#shadow)" />
    <circle cx="25" cy="25" r="12" fill="#10B981" />
    <use href="#icon-rocket" x="15.5" y="15.5" transform="scale(0.8)" fill="#ffffff" />
    <text x="45" y="25" fill="#1F2937" font-size="14" font-weight="bold">Deploy staging</text>
    <text x="45" y="42" fill="#6B7280" font-size="10">GH Actions + CD</text>
    <rect x="20" y="70" width="220" height="8" rx="4" fill="#E5E7EB" />
    <rect x="20" y="70" width="198" height="8" rx="4" fill="#10B981" />
    <text x="20" y="95" fill="#6B7280" font-size="10">Silná AI asistence</text>
    <text x="240" y="95" text-anchor="end" fill="#10B981" font-size="12" font-weight="bold">90%</text>
  </g>

  <g transform="translate(420, 445)">
    <rect width="260" height="110" rx="8" fill="#ffffff" stroke="#EF4444" stroke-width="2" filter="url(#shadow)" />
    <circle cx="25" cy="25" r="12" fill="#EF4444" />
    <use href="#icon-qa" x="15.5" y="15.5" transform="scale(0.8)" fill="#ffffff" />
    <text x="45" y="25" fill="#1F2937" font-size="14" font-weight="bold">QA a akceptace</text>
    <text x="45" y="42" fill="#6B7280" font-size="10">Playwright, Claude</text>
    <rect x="20" y="70" width="220" height="8" rx="4" fill="#E5E7EB" />
    <rect x="20" y="70" width="66" height="8" rx="4" fill="#EF4444" />
    <text x="20" y="95" fill="#6B7280" font-size="10">Slabá AI asistence</text>
    <text x="240" y="95" text-anchor="end" fill="#EF4444" font-size="12" font-weight="bold">30%</text>
  </g>

  <g transform="translate(710, 445)">
    <rect width="260" height="110" rx="8" fill="#ffffff" stroke="#F59E0B" stroke-width="2" filter="url(#shadow)" />
    <circle cx="25" cy="25" r="12" fill="#F59E0B" />
    <use href="#icon-bug" x="15.5" y="15.5" transform="scale(0.8)" fill="#ffffff" />
    <text x="45" y="25" fill="#1F2937" font-size="14" font-weight="bold">Bug fixing</text>
    <text x="45" y="42" fill="#6B7280" font-size="10">Claude Code, Sentry</text>
    <rect x="20" y="70" width="220" height="8" rx="4" fill="#E5E7EB" />
    <rect x="20" y="70" width="121" height="8" rx="4" fill="#F59E0B" />
    <text x="20" y="95" fill="#6B7280" font-size="10">Střední AI asistence</text>
    <text x="240" y="95" text-anchor="end" fill="#F59E0B" font-size="12" font-weight="bold">55%</text>
  </g>

  <g transform="translate(1000, 445)">
    <rect width="260" height="110" rx="8" fill="#ffffff" stroke="#10B981" stroke-width="2" filter="url(#shadow)" />
    <circle cx="25" cy="25" r="12" fill="#10B981" />
    <use href="#icon-deploy-prod" x="15.5" y="15.5" transform="scale(0.8)" fill="#ffffff" />
    <text x="45" y="25" fill="#1F2937" font-size="14" font-weight="bold">Deploy produkce</text>
    <text x="45" y="42" fill="#6B7280" font-size="10">GH Actions, feature flags</text>
    <rect x="20" y="70" width="220" height="8" rx="4" fill="#E5E7EB" />
    <rect x="20" y="70" width="165" height="8" rx="4" fill="#10B981" />
    <text x="20" y="95" fill="#6B7280" font-size="10">Silná AI asistence</text>
    <text x="240" y="95" text-anchor="end" fill="#10B981" font-size="12" font-weight="bold">75%</text>
  </g>

  <g transform="translate(1290, 445)">
    <rect width="260" height="110" rx="8" fill="#ffffff" stroke="#EF4444" stroke-width="2" filter="url(#shadow)" />
    <circle cx="25" cy="25" r="12" fill="#EF4444" />
    <use href="#icon-monitor" x="15.5" y="15.5" transform="scale(0.8)" fill="#ffffff" />
    <text x="45" y="25" fill="#1F2937" font-size="14" font-weight="bold">Monitoring</text>
    <text x="45" y="42" fill="#6B7280" font-size="10">Sentry, Datadog, Grafana</text>
    <rect x="20" y="70" width="220" height="8" rx="4" fill="#E5E7EB" />
    <rect x="20" y="70" width="55" height="8" rx="4" fill="#EF4444" />
    <text x="20" y="95" fill="#6B7280" font-size="10">Slabá AI asistence</text>
    <text x="240" y="95" text-anchor="end" fill="#EF4444" font-size="12" font-weight="bold">25%</text>
  </g>

  <g transform="translate(130, 595)">
    <rect width="260" height="110" rx="8" fill="#ffffff" stroke="#10B981" stroke-width="2" filter="url(#shadow)" />
    <circle cx="25" cy="25" r="12" fill="#10B981" />
    <use href="#icon-docs" x="15.5" y="15.5" transform="scale(0.8)" fill="#ffffff" />
    <text x="45" y="25" fill="#1F2937" font-size="14" font-weight="bold">Dokumentace</text>
    <text x="45" y="42" fill="#6B7280" font-size="10">Claude Code, GH MCP</text>
    <rect x="20" y="70" width="220" height="8" rx="4" fill="#E5E7EB" />
    <rect x="20" y="70" width="187" height="8" rx="4" fill="#10B981" />
    <text x="20" y="95" fill="#6B7280" font-size="10">Silná AI asistence</text>
    <text x="240" y="95" text-anchor="end" fill="#10B981" font-size="12" font-weight="bold">85%</text>
  </g>

  <g transform="translate(420, 595)">
    <rect width="260" height="110" rx="8" fill="#ffffff" stroke="#EF4444" stroke-width="2" filter="url(#shadow)" />
    <circle cx="25" cy="25" r="12" fill="#EF4444" />
    <use href="#icon-retro" x="15.5" y="15.5" transform="scale(0.8)" fill="#ffffff" />
    <text x="45" y="25" fill="#1F2937" font-size="14" font-weight="bold">Retrospektiva</text>
    <text x="45" y="42" fill="#6B7280" font-size="10">Claude + Jira + GH MCP</text>
    <rect x="20" y="70" width="220" height="8" rx="4" fill="#E5E7EB" />
    <rect x="20" y="70" width="77" height="8" rx="4" fill="#EF4444" />
    <text x="20" y="95" fill="#6B7280" font-size="10">Slabá AI asistence</text>
    <text x="240" y="95" text-anchor="end" fill="#EF4444" font-size="12" font-weight="bold">35%</text>
  </g>

  <g transform="translate(710, 595)">
    <rect width="260" height="110" rx="8" fill="#ffffff" stroke="#F59E0B" stroke-width="2" filter="url(#shadow)" />
    <circle cx="25" cy="25" r="12" fill="#F59E0B" />
    <use href="#icon-security" x="15.5" y="15.5" transform="scale(0.8)" fill="#ffffff" />
    <text x="45" y="25" fill="#1F2937" font-size="14" font-weight="bold">Bezpečnostní audit</text>
    <text x="45" y="42" fill="#6B7280" font-size="10">Snyk AI, CodeQL</text>
    <rect x="20" y="70" width="220" height="8" rx="4" fill="#E5E7EB" />
    <rect x="20" y="70" width="132" height="8" rx="4" fill="#F59E0B" />
    <text x="20" y="95" fill="#6B7280" font-size="10">Střední AI asistence</text>
    <text x="240" y="95" text-anchor="end" fill="#F59E0B" font-size="12" font-weight="bold">60%</text>
  </g>

  <g transform="translate(1000, 595)">
    <rect width="260" height="110" rx="8" fill="#ffffff" stroke="#10B981" stroke-width="2" filter="url(#shadow)" />
    <circle cx="25" cy="25" r="12" fill="#10B981" />
    <use href="#icon-onboarding" x="15.5" y="15.5" transform="scale(0.8)" fill="#ffffff" />
    <text x="45" y="25" fill="#1F2937" font-size="14" font-weight="bold">Onboarding</text>
    <text x="45" y="42" fill="#6B7280" font-size="10">Claude Code explorer</text>
    <rect x="20" y="70" width="220" height="8" rx="4" fill="#E5E7EB" />
    <rect x="20" y="70" width="154" height="8" rx="4" fill="#10B981" />
    <text x="20" y="95" fill="#6B7280" font-size="10">Silná AI asistence</text>
    <text x="240" y="95" text-anchor="end" fill="#10B981" font-size="12" font-weight="bold">70%</text>
  </g>

  <g transform="translate(1290, 595)">
    <rect width="260" height="110" rx="8" fill="#ffffff" stroke="#EF4444" stroke-width="2" filter="url(#shadow)" />
    <circle cx="25" cy="25" r="12" fill="#EF4444" />
    <use href="#icon-estimate" x="15.5" y="15.5" transform="scale(0.8)" fill="#ffffff" />
    <text x="45" y="25" fill="#1F2937" font-size="14" font-weight="bold">Estimace</text>
    <text x="45" y="42" fill="#6B7280" font-size="10">Claude + Jira MCP</text>
    <rect x="20" y="70" width="220" height="8" rx="4" fill="#E5E7EB" />
    <rect x="20" y="70" width="88" height="8" rx="4" fill="#EF4444" />
    <text x="20" y="95" fill="#6B7280" font-size="10">Slabá AI asistence</text>
    <text x="240" y="95" text-anchor="end" fill="#EF4444" font-size="12" font-weight="bold">40%</text>
  </g>

</svg>